<svg enable-background="new 0 0 117.7 103.9" viewBox="0 0 117.7 103.9" xmlns="http://www.w3.org/2000/svg"><path d="m93.5 100.3c-14.6 0-60 0-60 0l-7.8-4.7v4.7s-12.8.1-16.3.1c-4.8 0-4.1-5.2-4.1-7.6h89.7v6c.1.5-1 1.5-1.5 1.5zm-87.2-36.9c.5-5.3 1.5-15.8-1.6-24.9.6-.1 1.5-.1 2.5-.1 1.1 0 2.3 0 3.6.1 2.6 1.5 4.6 4.7 4.6 8.5 0 1.2-.2 3.1-.4 5.3-.8 7.4-2 18.6 2.7 23.7 1.6 1.8 3.9 2.8 6.7 2.8 5.1 0 8.1-1 9.6-3.1 2.2-3.1.3-7.9-1.8-13.4l-.7-1.9c-2.5-6.8-4.8-13.8-5.9-17.1h.2c.8-5.4 13.3-7.4 15.6-7.8 1.2 3.5 9.4 26.6 14.8 31.4 5.5 4.8 11.5 10 24.9 11.2 13.2 1.2 14 5.1 14 11.5l-89.7.2c-2.4-6.4.4-21.1.9-26.4zm17.1-20.2h.6c1 3.2 3.4 10.5 6.1 17.6l.7 2c2 5.1 3.7 9.6 2 12-1.1 1.7-3.9 2.5-8.4 2.5-2.4 0-4.2-.7-5.6-2.3-4.2-4.7-3-15.4-2.3-22.5.2-2.2.4-4.2.4-5.5-.1-4-1.6-6.7-3.5-8.4 2.2.1 4.1.2 4.9.3 2 .2 4.7 1.5 5.1 4.3zm74.7 49v-2.4c0-8.8-2.6-13.5-16.7-14.8-12.5-1.1-17.9-5.9-23.2-10.5-3.8-3.3-10.6-20.2-14-30.1l-.9-2.5-2.6.5-.5.1c-5.4 1-12.3 2.6-15.6 6.3-1.6-1.8-3.9-2.8-6.1-3-1.6-.1-7.4-.5-11.4-.5-1.1 0-2 0-2.7.1l-3.9.3 1.2 3.7c2.9 8.6 1.9 18.8 1.4 23.7-.1 1-.3 2.3-.5 3.9-1 7.2-2.4 18-.2 23.8l.2.5c-.2.4-.4.9-.4 1.5v.8c-.1 2.1-.2 5.6 2.1 7.9.9.9 2.5 2 5.1 2 3.5 0 16.3-.1 16.3-.1 1.5 0 2.6-1 3-2.4l3.3 2c.5.3 1 .4 1.6.4h60c2.1 0 4.6-2.4 4.6-4.6v-6.2c-.1-.2-.1-.3-.1-.4z" stroke="#000" stroke-miterlimit="10"/><path d="m103.7 52h-26c-6.6 0-12-5.4-12-12v-26c0-6.6 5.4-12 12-12h26c6.6 0 12 5.4 12 12v26c0 6.6-5.4 12-12 12z" fill="none" stroke="#000" stroke-miterlimit="10" stroke-width="4"/><path d="m92.3 18.8v6.4c0 .6.5 1.1 1.1 1.1h6.1c.6 0 1.1.5 1.1 1.1 0 .6-.5 1.1-1.1 1.1h-6.1c-.6 0-1.1.5-1.1 1.1v6.4c0 .6-.5 1.1-1.1 1.1h-.2c-.6 0-1.1-.5-1.1-1.1v-6.5c0-.6-.5-1.1-1.1-1.1h-6.1c-.6 0-1.1-.5-1.1-1.1 0-.6.5-1.1 1.1-1.1h6.1c.6 0 1.1-.5 1.1-1.1v-6.4c0-.6.5-1.1 1.1-1.1h.1c.7.1 1.2.6 1.2 1.2z"/></svg>