<?xml version="1.0" encoding="utf-8"?>
<!-- Generator: Adobe Illustrator 23.0.6, SVG Export Plug-In . SVG Version: 6.00 Build 0)  -->
<svg version="1.1" id="Calque_1" xmlns="http://www.w3.org/2000/svg" xmlns:xlink="http://www.w3.org/1999/xlink" x="0px" y="0px"
	 viewBox="0 0 128.72 39.89" style="enable-background:new 0 0 128.72 39.89;" xml:space="preserve">
<path d="M10.27,28.49V16.28h2.68v1.03H13c0.59-0.97,1.65-1.45,3.19-1.45c1.51,0,2.68,0.64,3.52,1.91c0.89-1.28,2.21-1.91,3.94-1.91
	c1.79,0,3.13,0.63,4.03,1.89c0.62,0.81,0.92,2.01,0.92,3.61v7.13h-2.93v-6.78c0-2.11-0.77-3.17-2.31-3.17
	c-0.89,0-1.57,0.38-2.02,1.14c-0.29,0.45-0.44,1.36-0.44,2.71v6.09h-2.93v-6.78c0-0.92-0.19-1.68-0.58-2.28
	c-0.39-0.59-1.01-0.89-1.86-0.89c-0.37,0-0.69,0.06-0.98,0.18c-0.29,0.12-0.51,0.3-0.67,0.54c-0.16,0.24-0.29,0.48-0.4,0.7
	c-0.1,0.23-0.17,0.52-0.21,0.87c-0.04,0.35-0.06,0.62-0.07,0.81s-0.01,0.44-0.01,0.75v6.09H10.27z"/>
<path d="M36.82,28.88c-1.8,0-3.34-0.64-4.61-1.93c-1.27-1.28-1.9-2.8-1.9-4.56c0-1.83,0.64-3.38,1.93-4.64
	c1.28-1.26,2.81-1.89,4.59-1.89c1.76,0,3.28,0.62,4.55,1.87c1.28,1.25,1.91,2.79,1.91,4.62c0,1.94-0.64,3.51-1.91,4.72
	C40.1,28.28,38.58,28.88,36.82,28.88z M36.82,26.2c1.03,0,1.87-0.38,2.54-1.13c0.67-0.75,1-1.64,1-2.65c0-1.08-0.36-2-1.07-2.75
	c-0.71-0.75-1.54-1.12-2.48-1.12c-0.87,0-1.68,0.35-2.44,1.04c-0.76,0.7-1.14,1.63-1.14,2.81c0,1.11,0.36,2.03,1.07,2.74
	C35.01,25.84,35.85,26.2,36.82,26.2z"/>
<path d="M57.44,12.21v16.28h-2.68v-1.5h-0.04c-0.32,0.51-0.81,0.96-1.47,1.33s-1.47,0.56-2.42,0.56c-1.63,0-3.07-0.61-4.33-1.83
	c-1.26-1.22-1.89-2.77-1.89-4.66c0-1.31,0.32-2.47,0.96-3.5c0.64-1.03,1.43-1.79,2.36-2.29s1.91-0.75,2.9-0.75
	c1.51,0,2.74,0.5,3.7,1.5v-5.15H57.44z M47.51,22.28c0,1.12,0.36,2.05,1.07,2.79c0.71,0.75,1.56,1.12,2.54,1.12
	c1.06,0,1.92-0.39,2.6-1.18c0.67-0.78,1.01-1.67,1.01-2.65c0-1.03-0.35-1.92-1.04-2.68c-0.7-0.76-1.55-1.14-2.56-1.14
	c-1.03,0-1.88,0.39-2.57,1.18C47.86,20.5,47.51,21.36,47.51,22.28z"/>
<path d="M71.84,16.28v12.21h-2.68v-1.52c-0.47,0.56-1.11,1.02-1.91,1.38c-0.81,0.36-1.59,0.54-2.35,0.54c-1.64,0-3.04-0.61-4.2-1.82
	c-1.16-1.21-1.74-2.8-1.74-4.76c0-1.85,0.59-3.38,1.77-4.61c1.18-1.22,2.63-1.84,4.34-1.84c0.47,0,0.92,0.06,1.36,0.19
	c0.44,0.13,0.81,0.28,1.11,0.45c0.3,0.18,0.58,0.36,0.82,0.56c0.25,0.2,0.43,0.36,0.54,0.48c0.11,0.13,0.18,0.22,0.21,0.28h0.04
	v-1.54H71.84z M69.07,22.35c0-1.19-0.36-2.12-1.07-2.79s-1.54-1.01-2.5-1.01c-1.13,0-2.02,0.4-2.66,1.19s-0.97,1.69-0.97,2.71
	c0,1.04,0.34,1.93,1.03,2.66c0.69,0.73,1.55,1.1,2.6,1.1c1.03,0,1.88-0.36,2.55-1.08C68.74,24.4,69.07,23.48,69.07,22.35z"/>
<path d="M78.87,27.13c0,0.38,0.03,0.62,0.08,0.73c0.04,0.06,0.12,0.11,0.25,0.17c0.39,0.13,1.21,0.2,2.45,0.2v0.25h-8.21v-0.25
	c0.54,0,1.04-0.02,1.48-0.06c0.44-0.04,0.82-0.11,1.14-0.23c0.11-0.09,0.17-0.37,0.17-0.82V12.06c0-0.38-0.06-0.64-0.17-0.79
	c-0.11-0.15-0.23-0.24-0.34-0.28c-0.34-0.09-1.09-0.14-2.25-0.14V10.6l5.4-0.48V27.13z"/>
<path d="M93.92,22.58c0,1.82-0.63,3.33-1.88,4.53c-1.14,1.09-2.43,1.63-3.85,1.63c-1.46,0-2.74-0.51-3.83-1.52
	c-1.28-1.18-1.91-2.73-1.91-4.64c0-1.82,0.63-3.32,1.88-4.5c1.14-1.07,2.43-1.6,3.85-1.6c1.44,0,2.72,0.51,3.83,1.52
	C93.28,19.16,93.92,20.69,93.92,22.58z M91,22.58c0-2.08-0.18-3.54-0.53-4.39c-0.41-0.98-1.17-1.46-2.28-1.46
	c-1.01,0-1.74,0.47-2.17,1.41c-0.43,0.94-0.65,2.42-0.65,4.45c0,2.06,0.19,3.56,0.58,4.5s1.13,1.41,2.24,1.41
	c1.01,0,1.73-0.48,2.17-1.43C90.78,26.1,91,24.6,91,22.58z"/>
<path d="M100.25,28.63L96.31,17.8c-0.17-0.43-0.27-0.69-0.31-0.76c-0.11-0.19-0.44-0.28-0.98-0.28h-0.65v-0.28h6.44v0.28
	c-0.43,0-0.87,0-1.31,0.01c-0.44,0.01-0.66,0.13-0.66,0.35l0.17,0.56l2.67,7.25l1.89-5.53c0.22-0.66,0.33-1.17,0.33-1.52
	c0-0.75-0.63-1.13-1.88-1.13v-0.28h4.75v0.28c-0.72,0-1.27,0.17-1.67,0.52s-0.84,1.22-1.33,2.61l-3,8.74H100.25z"/>
<path d="M119.18,28.04c-0.34,0.47-1.03,0.7-2.06,0.7c-0.81,0-1.41-0.14-1.81-0.42c-0.47-0.33-0.78-0.9-0.93-1.7
	c-0.39,0.91-0.98,1.52-1.77,1.84c-0.47,0.19-1.1,0.28-1.88,0.28c-0.79,0-1.47-0.19-2.05-0.56c-0.81-0.51-1.21-1.28-1.21-2.31
	c0-1.01,0.39-1.87,1.18-2.56c0.78-0.68,1.74-1.06,2.86-1.15c1.12-0.09,1.88-0.24,2.27-0.45c0.39-0.21,0.59-0.67,0.59-1.38v-1.64
	c0-0.75-0.12-1.26-0.36-1.53c-0.24-0.26-0.76-0.4-1.55-0.4c-0.64,0-1.21,0.13-1.7,0.37s-0.8,0.58-0.95,1
	c0.07-0.02,0.17-0.03,0.28-0.03c0.36,0,0.65,0.14,0.87,0.42s0.34,0.6,0.34,0.96c0,0.41-0.14,0.75-0.43,1.01
	c-0.28,0.26-0.62,0.39-0.99,0.39c-0.25,0-0.46-0.07-0.65-0.2c-0.55-0.36-0.82-0.81-0.82-1.35c0-0.26,0.06-0.56,0.17-0.9
	c0.26-0.73,0.92-1.27,1.97-1.6c0.75-0.24,1.51-0.37,2.28-0.37c1.39,0,2.44,0.26,3.15,0.79c0.64,0.47,0.96,1.06,0.96,1.77v6.2
	c0,1.12,0.03,1.81,0.08,2.08c0.13,0.64,0.47,0.96,1.01,0.96c0.49,0,0.82-0.25,0.98-0.76L119.18,28.04z M114.26,25.41v-3.76
	c-0.23,0.3-0.56,0.49-1,0.55c-0.44,0.07-0.87,0.13-1.28,0.18c-0.54,0.13-0.98,0.43-1.29,0.9c-0.38,0.57-0.56,1.36-0.56,2.37
	c0,1.09,0.11,1.83,0.32,2.22c0.22,0.39,0.56,0.58,1.03,0.58c0.71,0,1.35-0.3,1.93-0.89C113.97,26.98,114.26,26.25,114.26,25.41z"/>
</svg>
