<svg enable-background="new 35.5 -37 89 90" viewBox="35.5 -37 89 90" xmlns="http://www.w3.org/2000/svg"><path d="m122.5-12.8c1.3-1.7 2-3.9 2-6.2 0-.1 0-.3 0-.4l-2-10c-.2-.9-1-1.6-2-1.6h-80c-.9 0-1.7.6-1.9 1.4l-3 10c-.1.2-.1.4-.1.6 0 2.9 1.2 5.5 3 7.3v57.1c0 1.1.9 2 2 2s2-.9 2-2v-54.5c1.1.4 2.3.6 3.5.6 3.5 0 6.6-1.7 8.5-4.4 1.9 2.6 5 4.4 8.5 4.4s6.6-1.7 8.5-4.4c1.9 2.6 5 4.4 8.5 4.4s6.6-1.7 8.5-4.4c1.9 2.6 5 4.4 8.5 4.4s6.6-1.7 8.5-4.4c1.9 2.6 5 4.4 8.5 4.4 1.6 0 3.1-.4 4.5-1v54.9c0 1.1.9 2 2 2s2-.9 2-2v-57.8c0-.1 0-.3 0-.4zm-8.5.3c-3.6 0-6.5-2.9-6.5-6.5 0-1.1-.9-2-2-2s-2 .9-2 2c0 3.6-2.9 6.5-6.5 6.5s-6.5-2.9-6.5-6.5c0-1.1-.9-2-2-2s-2 .9-2 2c0 3.6-2.9 6.5-6.5 6.5s-6.5-2.9-6.5-6.5c0-1.1-.9-2-2-2s-2 .9-2 2c0 3.6-2.9 6.5-6.5 6.5s-6.5-2.9-6.5-6.5c0-1.1-.9-2-2-2s-2 .9-2 2c0 3.6-2.9 6.5-6.5 6.5-3.5 0-6.4-2.8-6.5-6.2l2.5-8.3h76.9l1.6 8.2c-.1 3.5-3 6.3-6.5 6.3zm4.5-20.5h-76c-1.1 0-2-.9-2-2s.9-2 2-2h76c1.1 0 2 .9 2 2s-.9 2-2 2zm4 86h-85c-1.1 0-2-.9-2-2s.9-2 2-2h85c1.1 0 2 .9 2 2s-.9 2-2 2zm-54-7.8h-20c-1.1 0-2-.9-2-2v-42c0-1.1.9-2 2-2h20c1.1 0 2 .9 2 2v42c0 1.1-.9 2-2 2zm-18-4h16v-38h-16zm62 4h-36c-1.1 0-2-.9-2-2v-42c0-1.1.9-2 2-2h36c1.1 0 2 .9 2 2v42c0 1.1-.9 2-2 2zm-34-4h32v-38h-32zm-14.7-17c0 1.1-.9 2-2 2s-2-.9-2-2 .9-2 2-2 2 .9 2 2zm24.7 2.5c-.5 0-1-.2-1.4-.6-.8-.8-.8-2 0-2.8l4.9-4.9c.8-.8 2-.8 2.8 0s.8 2 0 2.8l-4.8 4.9c-.4.4-.9.6-1.5.6zm7 0c-.5 0-1-.2-1.4-.6-.8-.8-.8-2 0-2.8l4.9-4.9c.8-.8 2-.8 2.8 0s.8 2 0 2.8l-4.8 4.9c-.4.4-.9.6-1.5.6z"/></svg>